Coordinates
version=1
nRows=24
nColumns=24
inDegrees=yes

Units are S.I. units (second, meters, Newtons, ...)
Angles are in degrees.

endheader
time	pelvis_tilt	pelvis_list	pelvis_rotation	pelvis_tx	pelvis_ty	pelvis_tz	hip_flexion_r	hip_adduction_r	hip_rotation_r	knee_angle_r	ankle_angle_r	subtalar_angle_r	mtp_angle_r	hip_flexion_l	hip_adduction_l	hip_rotation_l	knee_angle_l	ankle_angle_l	subtalar_angle_l	mtp_angle_l	lumbar_extension	lumbar_bending	lumbar_rotation
      5.48000000	      2.95005374	      1.32845822	      6.26702073	      1.64701247	      0.92723741	     -0.27124503	     22.30918325	     -3.78630000	    -11.89311084	    -39.45962649	     18.72838308	      7.65751101	      0.00000000	    -15.05431859	      5.91460254	     14.89822441	      0.51456782	      3.36531526	    -26.73368026	      0.00000000	    -24.46148879	     -0.62682398	     -8.64422623
      5.49000000	      2.96020584	      1.33116448	      6.59991683	      1.66033567	      0.92579937	     -0.27146910	     22.19794361	     -3.55903255	    -12.05777357	    -35.07704519	     18.95744532	      7.80266111	      0.00000000	    -16.49586452	      5.62566999	     15.81116446	      1.42243106	      2.44834451	    -28.08043842	      0.00000000	    -24.77746503	     -0.53897775	     -8.95052554
      5.50000000	      3.09235662	      1.41332708	      6.91078191	      1.67382231	      0.92415076	     -0.27165930	     21.74670194	     -3.34190382	    -12.03173697	    -30.36314116	     19.11300920	      7.96655372	      0.00000000	    -17.97640208	      5.41744570	     16.21116030	      2.12274789	      2.30899654	    -28.33449898	      0.00000000	    -25.23647485	     -0.52239325	     -9.22196683
      5.51000000	      3.23881739	      1.47177817	      7.22647031	      1.68754621	      0.92206797	     -0.27183020	     21.07005467	     -3.03070068	    -11.72867732	    -25.31797717	     19.02536422	      7.89482731	      0.00000000	    -19.55365388	      5.10985429	     17.35797206	      2.94017022	      1.17651994	    -30.09312605	      0.00000000	    -25.66550339	     -0.47091863	     -9.43574892
      5.52000000	      3.55918812	      1.65191700	      7.54783899	      1.70149182	      0.91991170	     -0.27201098	     20.00469148	     -2.81785574	    -11.21841278	    -20.03459630	     18.85952027	      7.88438212	      0.00000000	    -21.21348009	      4.92715994	     17.82165081	      3.50400977	      1.22668687	    -30.22780323	      0.00000000	    -26.29768340	     -0.51870504	     -9.66468281
      5.53000000	      3.89117517	      1.86948455	      7.85881627	      1.71572837	      0.91738337	     -0.27209461	     18.69308284	     -2.55572937	     -9.88976551	    -14.45879635	     18.26305402	      6.83672319	      0.00000000	    -22.89518533	      4.73942459	     18.53784129	      4.03775004	      0.87677941	    -30.94178317	      0.00000000	    -26.89973494	     -0.61263740	     -9.85205785
      5.54000000	      4.31821640	      2.21656019	      8.21594665	      1.73024874	      0.91463304	     -0.27225733	     17.08533631	     -2.50379457	     -8.07999944	     -8.82383421	     17.32669021	      5.26811865	      0.00000000	    -24.66250109	      4.63088592	     19.26947511	      4.46734549	      0.62518821	    -31.45070276	      0.00000000	    -27.59053967	     -0.80166829	    -10.11251985
      5.55000000	      4.72783235	      2.71341143	      8.59872283	      1.74504012	      0.91153393	     -0.27251402	     15.39843190	     -2.76873003	     -5.78821043	     -3.40216490	     16.09534155	      3.03735353	      0.00000000	    -26.36753092	      4.65413304	     20.01426313	      4.73009525	      0.51605460	    -31.76644661	      0.00000000	    -28.23738235	     -1.11957129	    -10.46328047
      5.56000000	      5.09567903	      3.34633918	      8.95479590	      1.75996286	      0.90819452	     -0.27282332	     13.93671080	     -3.37753701	     -3.99727521	      1.30154782	     15.00195145	      1.36675012	      0.00000000	    -27.94259129	      4.83437784	     20.70703204	      4.76513131	      0.61553497	    -31.81917209	      0.00000000	    -28.85328040	     -1.57016405	    -10.83663188
      5.57000000	      5.45225906	      3.97105186	      9.25587428	      1.77496677	      0.90483226	     -0.27302072	     12.87433793	     -4.03284924	     -3.35854488	      4.94198669	     14.44719628	      1.07170803	      0.00000000	    -29.40030190	      5.02568737	     21.29027223	      4.59941831	      0.78658020	    -31.63559331	      0.00000000	    -29.47134586	     -2.01609942	    -11.13674201
      5.58000000	      5.75982290	      4.47180002	      9.51139687	      1.79004042	      0.90150152	     -0.27304905	     12.23025894	     -4.52557961	     -3.24968443	      7.51307794	     14.08187217	      1.23656732	      0.00000000	    -30.66110018	      5.12127629	     21.85906910	      4.20345170	      1.07540305	    -31.42319156	      0.00000000	    -30.03009444	     -2.34184811	    -11.36941823
      5.59000000	      6.08308497	      4.82140622	      9.66426429	      1.80520803	      0.89834596	     -0.27282351	     11.92098201	     -4.80664473	     -3.12092076	      8.98258340	     13.89052069	      1.34863965	      0.00000000	    -31.80858146	      5.11563628	     22.23994607	      3.63143621	      1.32888920	    -31.07413759	      0.00000000	    -30.60212017	     -2.53752674	    -11.50951540
      5.60000000	      6.42916841	      5.02768617	      9.65333458	      1.82046510	      0.89545776	     -0.27235449	     11.94932682	     -4.89274292	     -2.73139513	      9.30815558	     13.78489799	      1.14684878	      0.00000000	    -32.75449689	      5.11805091	     21.87197774	      2.69871881	      2.31548262	    -29.55340365	      0.00000000	    -31.19650421	     -2.61764824	    -11.43181838
      5.61000000	      6.78324897	      5.01930446	      9.60129903	      1.83586000	      0.89285803	     -0.27178320	     12.34928204	     -4.69384226	     -2.77075020	      8.44614003	     13.95501589	      1.45185794	      0.00000000	    -33.54204406	      4.95363302	     21.30072064	      1.54708345	      3.40670172	    -27.74352249	      0.00000000	    -31.77027081	     -2.46204415	    -11.32718606
      5.62000000	      7.12279547	      4.82001649	      9.41753792	      1.85152823	      0.89045599	     -0.27105738	     13.09513715	     -4.24878100	     -2.96194359	      6.52391334	     14.27509624	      1.97286205	      0.00000000	    -34.11465826	      4.72740811	     19.97673161	      0.10599331	      4.81930208	    -25.05788200	      0.00000000	    -32.27210903	     -2.13813853	    -11.04045675
      5.63000000	      7.42833009	      4.51739044	      9.19280752	      1.86746354	      0.88825632	     -0.27029767	     14.17347349	     -3.68362244	     -3.86717236	      3.63104550	     14.80909133	      3.34666838	      0.00000000	    -34.39748298	      4.46844074	     17.83755146	     -1.73420819	      6.65532796	    -21.28548482	      0.00000000	    -32.70214027	     -1.69810041	    -10.78125618
      5.64000000	      7.61756508	      4.17014746	      8.96234524	      1.88376816	      0.88606028	     -0.26956386	     15.54393092	     -3.15523241	     -5.20682114	      0.04393515	     15.39081771	      5.14427949	      0.00000000	    -34.24603608	      4.17866884	     14.66268711	     -4.07840454	      9.00199326	    -16.08778609	      0.00000000	    -32.94313409	     -1.20191049	    -10.58315085
      5.65000000	      7.59289485	      3.81791896	      8.81274106	      1.90048023	      0.88369511	     -0.26899667	     17.18662113	     -2.79705546	     -6.89493979	     -3.95225807	     15.67371667	      7.04822335	      0.00000000	    -33.67753902	      3.78409244	     11.38191570	     -6.71349956	     10.78911478	    -10.96490872	      0.00000000	    -32.86835727	     -0.66662769	    -10.50928038
      5.66000000	      7.50624750	      3.44548744	      8.74430531	      1.91758734	      0.88131255	     -0.26854223	     18.70944543	     -2.52072670	     -7.96860191	     -7.86370125	     15.31584482	      7.88475801	      0.00000000	    -32.90232645	      3.22748321	      8.33056236	     -9.54523507	     11.76330305	     -6.52631615	      0.00000000	    -32.64789580	     -0.05325376	    -10.58568558
      5.67000000	      7.39668935	      3.02803454	      8.74189235	      1.93499800	      0.87903138	     -0.26814988	     20.08286625	     -2.23182150	     -8.54618651	    -11.60583632	     14.56572984	      7.94560561	      0.00000000	    -31.99855091	      2.51717308	      5.82266295	    -12.48754867	     11.72482187	     -3.17931884	      0.00000000	    -32.34010003	      0.65930949	    -10.77827351
      5.68000000	      7.29445115	      2.54919959	      8.78600360	      1.95260223	      0.87694612	     -0.26779977	     21.33024818	     -1.88713229	     -8.89434833	    -15.20454287	     13.81811605	      7.64940103	      0.00000000	    -30.97406437	      1.68522229	      3.88515025	    -15.54499575	     10.71086167	     -0.86228956	      0.00000000	    -31.98949709	      1.47965919	    -11.04427018
      5.69000000	      7.26311389	      2.00348756	      8.87856171	      1.97024719	      0.87517711	     -0.26749715	     22.39506954	     -1.47250869	     -9.20968580	    -18.64664641	     13.41362354	      7.32823736	      0.00000000	    -29.82293979	      0.74528212	      2.44120507	    -18.80010006	      8.83565537	      0.61107728	      0.00000000	    -31.69275181	      2.41579123	    -11.35966993
      5.70000000	      7.32809170	      1.39247661	      9.00384747	      1.98783330	      0.87374126	     -0.26721486	     23.24049614	     -0.97416018	     -9.55845575	    -21.91056005	     13.57063827	      7.10650952	      0.00000000	    -28.53520393	     -0.27993644	      1.40617763	    -22.28001556	      6.25883371	      1.47894679	      0.00000000	    -31.48745721	      3.44800379	    -11.68635087
      5.71000000	      7.47377731	      0.73818505	      9.15937809	      2.00522800	      0.87260071	     -0.26692527	     23.85169969	     -0.41141166	     -9.99341431	    -24.94858152	     14.29898021	      7.06847663	      0.00000000	    -27.04901295	     -1.36548115	      0.66940147	    -26.03543478	      3.24086433	      2.01178737	      0.00000000	    -31.36989365	      4.52631009	    -12.02657189
